<svg width="278" height="121" viewBox="0 0 278 121" fill="none" xmlns="http://www.w3.org/2000/svg">
<path d="M8.732 90.17H0.148V86.1H22.126V90.17H13.542V112H8.732V90.17ZM21.8621 92.242H26.4871V112H21.8621V92.242ZM24.1931 88.986C23.3544 88.986 22.6514 88.727 22.0841 88.209C21.5168 87.6663 21.2331 87.0003 21.2331 86.211C21.2331 85.4217 21.5168 84.768 22.0841 84.25C22.6514 83.7073 23.3544 83.436 24.1931 83.436C25.0318 83.436 25.7348 83.695 26.3021 84.213C26.8694 84.7063 27.1531 85.3353 27.1531 86.1C27.1531 86.914 26.8694 87.6047 26.3021 88.172C25.7594 88.7147 25.0564 88.986 24.1931 88.986ZM48.1714 102.232C48.1714 102.553 48.1467 103.009 48.0974 103.601H32.5944C32.8657 105.056 33.5687 106.216 34.7034 107.079C35.8627 107.918 37.2934 108.337 38.9954 108.337C41.1661 108.337 42.9544 107.622 44.3604 106.191L46.8394 109.04C45.9514 110.101 44.8291 110.902 43.4724 111.445C42.1157 111.988 40.5864 112.259 38.8844 112.259C36.7137 112.259 34.8021 111.827 33.1494 110.964C31.4967 110.101 30.2141 108.904 29.3014 107.375C28.4134 105.821 27.9694 104.07 27.9694 102.121C27.9694 100.197 28.4011 98.4703 29.2644 96.941C30.1524 95.387 31.3734 94.1783 32.9274 93.315C34.4814 92.4517 36.2327 92.02 38.1814 92.02C40.1054 92.02 41.8197 92.4517 43.3244 93.315C44.8537 94.1537 46.0377 95.35 46.8764 96.904C47.7397 98.4333 48.1714 100.209 48.1714 102.232ZM38.1814 95.72C36.7014 95.72 35.4434 96.164 34.4074 97.052C33.3961 97.9153 32.7794 99.0747 32.5574 100.53H43.7684C43.5711 99.0993 42.9667 97.94 41.9554 97.052C40.9441 96.164 39.6861 95.72 38.1814 95.72ZM38.0704 119.511C37.4291 119.511 36.8987 119.314 36.4794 118.919C36.0601 118.524 35.8504 117.994 35.8504 117.328C35.8504 116.687 36.0601 116.144 36.4794 115.7C36.8987 115.281 37.4291 115.071 38.0704 115.071C38.7117 115.071 39.2421 115.281 39.6614 115.7C40.0807 116.144 40.2904 116.687 40.2904 117.328C40.2904 117.994 40.0807 118.524 39.6614 118.919C39.2421 119.314 38.7117 119.511 38.0704 119.511ZM41.3264 89.541L38.0704 86.803L34.8144 89.541H31.0034L35.9614 84.472H40.1794L45.1374 89.541H41.3264ZM74.592 92.02C77.0833 92.02 79.0567 92.7477 80.512 94.203C81.9673 95.6337 82.695 97.792 82.695 100.678V112H78.07V101.27C78.07 99.5433 77.6877 98.2483 76.923 97.385C76.1583 96.497 75.0607 96.053 73.63 96.053C72.076 96.053 70.8303 96.571 69.893 97.607C68.9557 98.6183 68.487 100.074 68.487 101.973V112H63.862V101.27C63.862 99.5433 63.4797 98.2483 62.715 97.385C61.9503 96.497 60.8527 96.053 59.422 96.053C57.8433 96.053 56.5853 96.5587 55.648 97.57C54.7353 98.5813 54.279 100.049 54.279 101.973V112H49.654V92.242H54.057V94.758C54.797 93.87 55.722 93.1917 56.832 92.723C57.942 92.2543 59.1753 92.02 60.532 92.02C62.012 92.02 63.3193 92.3037 64.454 92.871C65.6133 93.4137 66.526 94.2277 67.192 95.313C68.006 94.277 69.0543 93.4753 70.337 92.908C71.6197 92.316 73.038 92.02 74.592 92.02ZM100.459 92.02C103.369 92.02 105.589 92.723 107.119 94.129C108.673 95.5103 109.45 97.607 109.45 100.419V112H105.084V109.595C104.516 110.458 103.702 111.124 102.642 111.593C101.606 112.037 100.348 112.259 98.8678 112.259C97.3878 112.259 96.0928 112.012 94.9828 111.519C93.8728 111.001 93.0094 110.298 92.3928 109.41C91.8008 108.497 91.5048 107.474 91.5048 106.339C91.5048 104.563 92.1584 103.145 93.4658 102.084C94.7978 100.999 96.8821 100.456 99.7188 100.456H104.825V100.16C104.825 98.7787 104.405 97.718 103.567 96.978C102.753 96.238 101.532 95.868 99.9038 95.868C98.7938 95.868 97.6961 96.0407 96.6108 96.386C95.5501 96.7313 94.6498 97.2123 93.9098 97.829L92.0968 94.462C93.1328 93.6727 94.3784 93.0683 95.8338 92.649C97.2891 92.2297 98.8308 92.02 100.459 92.02ZM99.8298 108.892C100.989 108.892 102.013 108.633 102.901 108.115C103.813 107.572 104.455 106.808 104.825 105.821V103.527H100.052C97.3878 103.527 96.0558 104.403 96.0558 106.154C96.0558 106.993 96.3888 107.659 97.0548 108.152C97.7208 108.645 98.6458 108.892 99.8298 108.892ZM100.274 88.209C100.989 87.8883 101.495 87.543 101.791 87.173C102.111 86.7783 102.272 86.3343 102.272 85.841C102.272 85.3723 102.099 84.99 101.754 84.694C101.408 84.3733 100.964 84.213 100.422 84.213C99.6571 84.213 98.9171 84.4473 98.2018 84.916L97.2028 82.881C97.6961 82.511 98.2634 82.2273 98.9048 82.03C99.5461 81.8327 100.212 81.734 100.903 81.734C102.087 81.734 103.061 82.0793 103.826 82.77C104.59 83.436 104.973 84.324 104.973 85.434C104.973 87.432 103.912 88.9243 101.791 89.911L100.274 88.209ZM123.636 92.02C126.128 92.02 128.126 92.7477 129.63 94.203C131.135 95.6583 131.887 97.8167 131.887 100.678V112H127.262V101.27C127.262 99.5433 126.855 98.2483 126.041 97.385C125.227 96.497 124.068 96.053 122.563 96.053C120.861 96.053 119.517 96.571 118.53 97.607C117.544 98.6183 117.05 100.086 117.05 102.01V112H112.425V92.242H116.828V94.795C117.593 93.8823 118.555 93.1917 119.714 92.723C120.874 92.2543 122.181 92.02 123.636 92.02ZM146.005 92.02C148.497 92.02 150.495 92.7477 151.999 94.203C153.504 95.6583 154.256 97.8167 154.256 100.678V112H149.631V101.27C149.631 99.5433 149.224 98.2483 148.41 97.385C147.596 96.497 146.437 96.053 144.932 96.053C143.23 96.053 141.886 96.571 140.899 97.607C139.913 98.6183 139.419 100.086 139.419 102.01V112H134.794V84.546H139.419V94.536C140.184 93.722 141.121 93.1053 142.231 92.686C143.366 92.242 144.624 92.02 146.005 92.02ZM189.367 92.02C191.858 92.02 193.832 92.7477 195.287 94.203C196.742 95.6337 197.47 97.792 197.47 100.678V112H192.845V101.27C192.845 99.5433 192.463 98.2483 191.698 97.385C190.933 96.497 189.836 96.053 188.405 96.053C186.851 96.053 185.605 96.571 184.668 97.607C183.731 98.6183 183.262 100.074 183.262 101.973V112H178.637V101.27C178.637 99.5433 178.255 98.2483 177.49 97.385C176.725 96.497 175.628 96.053 174.197 96.053C172.618 96.053 171.36 96.5587 170.423 97.57C169.51 98.5813 169.054 100.049 169.054 101.973V112H164.429V92.242H168.832V94.758C169.572 93.87 170.497 93.1917 171.607 92.723C172.717 92.2543 173.95 92.02 175.307 92.02C176.787 92.02 178.094 92.3037 179.229 92.871C180.388 93.4137 181.301 94.2277 181.967 95.313C182.781 94.277 183.829 93.4753 185.112 92.908C186.395 92.316 187.813 92.02 189.367 92.02ZM207.968 92.02C210.879 92.02 213.099 92.723 214.628 94.129C216.182 95.5103 216.959 97.607 216.959 100.419V112H212.593V109.595C212.026 110.458 211.212 111.124 210.151 111.593C209.115 112.037 207.857 112.259 206.377 112.259C204.897 112.259 203.602 112.012 202.492 111.519C201.382 111.001 200.519 110.298 199.902 109.41C199.31 108.497 199.014 107.474 199.014 106.339C199.014 104.563 199.668 103.145 200.975 102.084C202.307 100.999 204.392 100.456 207.228 100.456H212.334V100.16C212.334 98.7787 211.915 97.718 211.076 96.978C210.262 96.238 209.041 95.868 207.413 95.868C206.303 95.868 205.206 96.0407 204.12 96.386C203.06 96.7313 202.159 97.2123 201.419 97.829L199.606 94.462C200.642 93.6727 201.888 93.0683 203.343 92.649C204.799 92.2297 206.34 92.02 207.968 92.02ZM207.339 108.892C208.499 108.892 209.522 108.633 210.41 108.115C211.323 107.572 211.964 106.808 212.334 105.821V103.527H207.561C204.897 103.527 203.565 104.403 203.565 106.154C203.565 106.993 203.898 107.659 204.564 108.152C205.23 108.645 206.155 108.892 207.339 108.892ZM201.049 84.472H206.488L211.483 89.541H207.487L201.049 84.472ZM239.064 92.242V112H234.661V109.484C233.921 110.372 232.996 111.063 231.886 111.556C230.776 112.025 229.58 112.259 228.297 112.259C225.658 112.259 223.573 111.531 222.044 110.076C220.539 108.596 219.787 106.413 219.787 103.527V92.242H224.412V102.898C224.412 104.674 224.807 106.006 225.596 106.894C226.41 107.757 227.557 108.189 229.037 108.189C230.69 108.189 231.997 107.683 232.959 106.672C233.946 105.636 234.439 104.156 234.439 102.232V92.242H239.064ZM249.425 84.546H254.05V112H249.425V84.546ZM264.708 92.02C267.619 92.02 269.839 92.723 271.368 94.129C272.922 95.5103 273.699 97.607 273.699 100.419V112H269.333V109.595C268.766 110.458 267.952 111.124 266.891 111.593C265.855 112.037 264.597 112.259 263.117 112.259C261.637 112.259 260.342 112.012 259.232 111.519C258.122 111.001 257.259 110.298 256.642 109.41C256.05 108.497 255.754 107.474 255.754 106.339C255.754 104.563 256.408 103.145 257.715 102.084C259.047 100.999 261.132 100.456 263.968 100.456H269.074V100.16C269.074 98.7787 268.655 97.718 267.816 96.978C267.002 96.238 265.781 95.868 264.153 95.868C263.043 95.868 261.946 96.0407 260.86 96.386C259.8 96.7313 258.899 97.2123 258.159 97.829L256.346 94.462C257.382 93.6727 258.628 93.0683 260.083 92.649C261.539 92.2297 263.08 92.02 264.708 92.02ZM264.079 108.892C265.239 108.892 266.262 108.633 267.15 108.115C268.063 107.572 268.704 106.808 269.074 105.821V103.527H264.301C261.637 103.527 260.305 104.403 260.305 106.154C260.305 106.993 260.638 107.659 261.304 108.152C261.97 108.645 262.895 108.892 264.079 108.892ZM267.002 84.472H272.441L266.003 89.541H262.007L267.002 84.472Z" fill="white"/>
<path d="M135.5 71.0001C123.833 71.6668 100.5 65.5001 100.5 35.5001C130.5 33.5001 137 62.0001 135.5 71.0001Z" fill="#84C255"/>
<path d="M175.397 35.8232C176.063 47.4899 169.897 70.8232 139.897 70.8232C137.897 40.8232 166.397 34.3232 175.397 35.8232Z" fill="#84C255"/>
<path d="M137.482 49.9219C128.761 42.1437 116.622 21.2841 137.835 0.0708507C160.463 19.8698 144.906 44.6186 137.482 49.9219Z" fill="#84C255"/>
</svg>
